<svg width="80" height="80" viewBox="0 0 80 80" fill="none" xmlns="http://www.w3.org/2000/svg">
<path fill-rule="evenodd" clip-rule="evenodd" d="M40 70C43.9397 70 47.8407 69.224 51.4805 67.7164C55.1203 66.2087 58.4274 63.999 61.2132 61.2132C63.999 58.4274 66.2087 55.1203 67.7164 51.4805C69.224 47.8407 70 43.9397 70 40C70 36.0603 69.224 32.1593 67.7164 28.5195C66.2087 24.8797 63.999 21.5726 61.2132 18.7868C58.4274 16.001 55.1203 13.7913 51.4805 12.2836C47.8407 10.776 43.9397 10 40 10C32.0435 10 24.4129 13.1607 18.7868 18.7868C13.1607 24.4129 10 32.0435 10 40C10 47.9565 13.1607 55.5871 18.7868 61.2132C24.4129 66.8393 32.0435 70 40 70ZM35.9433 26.6333L54.7567 37.0867C55.2761 37.3754 55.7088 37.7978 56.0101 38.31C56.3114 38.8223 56.4702 39.4057 56.4702 40C56.4702 40.5943 56.3114 41.1777 56.0101 41.69C55.7088 42.2022 55.2761 42.6246 54.7567 42.9133L35.9433 53.3667C35.3342 53.7053 34.6471 53.8788 33.9502 53.8701C33.2533 53.8615 32.5708 53.6709 31.9702 53.3172C31.3697 52.9635 30.872 52.4591 30.5264 51.8539C30.1808 51.2486 29.9993 50.5636 30 49.8667V30.1333C29.9993 29.4364 30.1808 28.7514 30.5264 28.1461C30.872 27.5409 31.3697 27.0365 31.9702 26.6828C32.5708 26.3291 33.2533 26.1385 33.9502 26.1298C34.6471 26.1212 35.3342 26.2947 35.9433 26.6333Z" fill="white"/>
</svg>
