<svg width="60" height="66" viewBox="0 0 60 66" fill="none" xmlns="http://www.w3.org/2000/svg">
<path d="M30 0C46.569 0 60 13.431 60 30C60 46.569 46.569 60 30 60C13.431 60 0 46.569 0 30C0 13.431 13.431 0 30 0ZM30 42C29.2044 42 28.4413 42.3161 27.8787 42.8787C27.3161 43.4413 27 44.2043 27 45C27 45.7957 27.3161 46.5587 27.8787 47.1213C28.4413 47.6839 29.2044 48 30 48C30.7956 48 31.5587 47.6839 32.1213 47.1213C32.6839 46.5587 33 45.7957 33 45C33 44.2043 32.6839 43.4413 32.1213 42.8787C31.5587 42.3161 30.7956 42 30 42ZM30 13.5C27.1158 13.5 24.3497 14.6458 22.3102 16.6852C20.2708 18.7247 19.125 21.4908 19.125 24.375C19.125 25.1706 19.4411 25.9337 20.0037 26.4963C20.5663 27.0589 21.3294 27.375 22.125 27.375C22.9206 27.375 23.6837 27.0589 24.2463 26.4963C24.8089 25.9337 25.125 25.1706 25.125 24.375C25.126 23.4901 25.3678 22.6222 25.8246 21.8643C26.2813 21.1064 26.9357 20.487 27.7176 20.0728C28.4995 19.6585 29.3795 19.4648 30.2631 19.5126C31.1467 19.5603 32.0006 19.8477 32.7333 20.3438C33.466 20.84 34.0499 21.5262 34.4223 22.3289C34.7947 23.1316 34.9416 24.0206 34.8472 24.9004C34.7528 25.7803 34.4207 26.6178 33.8866 27.3233C33.3524 28.0288 32.6363 28.5755 31.815 28.905C29.787 29.715 27 31.791 27 35.25V36C27 36.7957 27.3161 37.5587 27.8787 38.1213C28.4413 38.6839 29.2044 39 30 39C30.7956 39 31.5587 38.6839 32.1213 38.1213C32.6839 37.5587 33 36.7957 33 36C33 35.268 33.15 34.902 33.783 34.59L34.044 34.47C36.3864 33.5277 38.3281 31.7999 39.5362 29.5828C40.7443 27.3656 41.1435 24.7973 40.6654 22.3182C40.1873 19.839 38.8616 17.6033 36.9157 15.9944C34.9698 14.3855 32.5249 13.5037 30 13.5Z" fill="#1B8918"/>
</svg>
